<?xml version="1.0" encoding="UTF-8" standalone="no"?>
<svg
   width="128"
   height="128"
   viewBox="0 0 128 128"
   version="1.1"
   id="svg3"
   sodipodi:docname="autogit.svg"
   inkscape:version="1.4.2 (unknown)"
   xmlns:inkscape="http://www.inkscape.org/namespaces/inkscape"
   xmlns:sodipodi="http://sodipodi.sourceforge.net/DTD/sodipodi-0.dtd"
   xmlns="http://www.w3.org/2000/svg"
   xmlns:svg="http://www.w3.org/2000/svg">
  <defs
     id="defs3" />
  <sodipodi:namedview
     id="namedview3"
     pagecolor="#ffffff"
     bordercolor="#000000"
     borderopacity="0.25"
     inkscape:showpageshadow="2"
     inkscape:pageopacity="0.0"
     inkscape:pagecheckerboard="0"
     inkscape:deskcolor="#d1d1d1"
     inkscape:zoom="3.7578125"
     inkscape:cx="64"
     inkscape:cy="63.866944"
     inkscape:window-width="1265"
     inkscape:window-height="2064"
     inkscape:window-x="2561"
     inkscape:window-y="43"
     inkscape:window-maximized="1"
     inkscape:current-layer="svg3" />
  <!-- Orange rounded diamond background -->
  <rect
     x="20"
     y="20"
     width="88"
     height="88"
     rx="15"
     ry="15"
     transform="rotate(45 64 64)"
     style="fill:#e8734a;fill-opacity:1;stroke:none"
     id="rect1" />
  <!-- Dark sync icon -->
  <g
     style="fill:#2d2a2e;fill-opacity:1;stroke:none"
     id="g3">
    <!-- Left circle -->
    <circle
       cx="48"
       cy="56"
       r="8"
       id="circle1" />
    <!-- Right circle -->
    <circle
       cx="80"
       cy="72"
       r="8"
       id="circle2" />
    <!-- Curved arrow path connecting circles (counter-clockwise flow) -->
    <path
       d="M 56,56              A 20,20 0 0 1 72,72              L 72,72              A 20,20 0 0 1 56,88              L 50,82              A 12,12 0 0 0 62,76              A 12,12 0 0 0 62,60              Z"
       id="path2" />
    <!-- Second curved arrow (clockwise flow) -->
    <path
       d="M 72,72              A 20,20 0 0 1 56,56              L 56,56              A 20,20 0 0 1 72,40              L 78,46              A 12,12 0 0 0 66,52              A 12,12 0 0 0 66,68              Z"
       id="path3" />
  </g>
  <path
     style="fill:#ed5400;stroke-width:0.266112;fill-opacity:1"
     d="m 62.089362,119.69719 c -2.256467,-0.26185 -4.318811,-1.03308 -6.268466,-2.34413 C 54.913698,116.74301 45.363945,107.3719 32.449187,94.418556 12.056442,73.96488 10.555111,72.396643 9.7596983,70.717924 7.6031569,66.16654 7.602524,61.84117 9.757732,57.282076 10.553834,55.598013 12.021373,54.070449 32.979445,33.110541 56.982588,9.105296 56.264952,9.7530486 60.075275,8.6532461 c 2.00948,-0.5800121 5.83997,-0.5800121 7.84945,0 3.810323,1.0998025 3.092687,0.4520499 27.09583,24.4572949 20.958075,20.959908 22.425615,22.487472 23.221715,24.171535 2.47625,5.23822 2.116,10.434498 -1.04688,15.10046 -0.54567,0.80499 -10.79192,11.231567 -22.769436,23.170169 -18.44137,18.381455 -22.021889,21.832595 -23.373979,22.529405 -2.915018,1.50228 -5.664756,1.99779 -8.962613,1.61508 z M 58.59749,87.419519 c 5.984191,-1.912884 11.031703,-6.956862 12.853313,-12.844313 l 0.433372,-1.400666 0.451552,1.432485 c 1.269034,4.025839 5.857317,6.355602 10.092247,5.124476 1.95742,-0.569039 4.145651,-2.529634 5.003389,-4.482906 1.282212,-2.919898 0.644676,-6.527859 -1.556762,-8.810049 -1.660091,-1.720988 -3.295111,-2.407328 -5.774809,-2.424125 -1.811671,-0.01227 -2.355495,0.09685 -3.649581,0.73233 -1.925979,0.945779 -3.522866,2.736129 -4.114484,4.61296 l -0.451552,1.432485 -0.433372,-1.400666 c -1.08276,-3.499482 -4.66085,-8.406441 -7.335012,-10.059166 -0.514954,-0.318259 -0.914128,-0.782604 -0.914128,-1.063376 0,-1.93424 3.110626,-7.184869 5.505288,-9.292737 2.157867,-1.899429 4.918614,-2.920036 7.931966,-2.932323 l 1.595258,-0.0065 -3.105243,-3.105245 -3.105245,-3.105243 -1.816419,0.490376 C 63.957475,42.004568 58.4462,47.293669 56.549197,53.424794 l -0.433372,1.400666 -0.451552,-1.432485 c -1.269034,-4.025839 -5.857317,-6.355602 -10.092247,-5.124476 -1.95742,0.569039 -4.145651,2.529634 -5.003389,4.482906 -1.709742,3.893489 -0.03182,8.514225 3.804583,10.477226 4.385799,2.244111 10.073778,-0.205806 11.401061,-4.910649 l 0.326714,-1.15811 0.440786,1.424632 c 1.089681,3.521854 4.256774,7.905218 7.170815,9.924649 0.597159,0.413831 1.085741,0.970186 1.085741,1.236347 0,1.920428 -3.119954,7.178593 -5.505288,9.278249 -2.157066,1.898724 -4.918676,2.920025 -7.929041,2.932323 l -1.592334,0.0065 3.051611,3.060291 c 1.678386,1.68316 3.19707,3.060291 3.374854,3.060291 0.177784,0 1.257492,-0.298639 2.399351,-0.663641 z"
     id="path4" />
</svg>
